<?xml version="1.0" standalone="no"?><!DOCTYPE svg PUBLIC "-//W3C//DTD SVG 1.1//EN" "http://www.w3.org/Graphics/SVG/1.1/DTD/svg11.dtd"><svg t="1536816705392" class="icon" style="" viewBox="0 0 9767 1024" version="1.1" xmlns="http://www.w3.org/2000/svg" p-id="2907" xmlns:xlink="http://www.w3.org/1999/xlink" width="2193.759765625" height="230"><defs><style type="text/css"></style></defs><path d="M1185.476923 862.523077c47.261538-35.446154 90.584615-74.830769 126.030769-110.276923 35.446154-35.446154 63.015385-70.892308 90.584616-110.276923 23.630769-39.384615 43.323077-78.769231 59.076923-118.153846s23.630769-86.646154 31.507692-137.846154h-263.876923c-3.938462 0-7.876923 0-11.815385-3.938462-3.938462-3.938462-3.938462-7.876923-3.938461-11.815384v-7.876923c0-3.938462 0-7.876923 3.938461-11.815385 3.938462-3.938462 7.876923-3.938462 11.815385-3.938462H1496.615385c0-11.815385 0-23.630769 3.938461-35.446153V177.230769c0-7.876923 3.938462-11.815385 7.876923-15.753846 0 0 3.938462-3.938462 11.815385-3.938461h51.2c3.938462 0 11.815385 3.938462 15.753846 7.876923 3.938462 3.938462 7.876923 7.876923 7.876923 15.753846v165.415384h311.138462c3.938462 0 7.876923 0 11.815384 3.938462 3.938462 3.938462 3.938462 7.876923 3.938462 11.815385v15.753846c0 3.938462 0 7.876923-3.938462 11.815384-3.938462 3.938462-7.876923 3.938462-11.815384 3.938462h-279.63077c19.692308 51.2 39.384615 98.461538 59.076923 133.907692 19.692308 39.384615 39.384615 70.892308 59.076924 102.4 19.692308 27.569231 47.261538 55.138462 74.830769 78.769231 27.569231 23.630769 63.015385 47.261538 102.4 74.830769 7.876923 7.876923 15.753846 11.815385 15.753846 15.753846 0 3.938462-3.938462 11.815385-11.815385 23.63077-7.876923 7.876923-11.815385 15.753846-19.692307 23.630769l-23.63077 23.630769c-7.876923 7.876923-19.692308 11.815385-23.630769 11.815385-7.876923 0-15.753846-7.876923-31.507692-15.753847-59.076923-47.261538-106.338462-110.276923-145.723077-189.046153s-63.015385-173.292308-78.769231-283.569231h-11.815384c-3.938462 55.138462-15.753846 102.4-31.507693 141.784615-15.753846 43.323077-31.507692 82.707692-55.138461 118.153846 7.876923 7.876923 19.692308 15.753846 31.507692 23.63077 11.815385 7.876923 19.692308 15.753846 31.507692 23.630769 11.815385 7.876923 19.692308 15.753846 27.569231 27.569231 7.876923 7.876923 15.753846 15.753846 19.692308 23.630769 11.815385 15.753846 11.815385 31.507692 3.938461 55.138461-3.938462 7.876923-7.876923 11.815385-11.815384 19.692308-3.938462 7.876923-11.815385 11.815385-15.753846 19.692308-7.876923 7.876923-15.753846 11.815385-27.569231 11.815384-7.876923 0-15.753846-7.876923-19.692308-23.630769-7.876923-23.630769-15.753846-47.261538-27.569231-70.892308-11.815385-23.630769-23.630769-51.2-35.446154-74.830769-31.507692 43.323077-70.892308 78.769231-114.215384 114.215385-47.261538 31.507692-98.461538 66.953846-161.476923 98.461538h-7.876923c-3.938462 0-3.938462-3.938462-7.876923-7.876923 0-3.938462-3.938462-7.876923-3.938462-11.815384-3.938462-15.753846-3.938462-15.753846 0-19.692308M2134.646154 803.446154H2481.230769v-236.307692h-342.646154v236.307692zM2048 531.692308c0-7.876923 3.938462-11.815385 7.876923-15.753846 3.938462-3.938462 7.876923-7.876923 15.753846-7.876924h47.261539c3.938462 0 11.815385 3.938462 15.753846 7.876924 3.938462 3.938462 7.876923 7.876923 7.876923 15.753846h129.969231V350.523077h-287.507693c-3.938462 0-7.876923 0-7.876923-3.938462-3.938462-3.938462-3.938462-3.938462-3.938461-7.876923v-15.753846c0-3.938462 0-7.876923 3.938461-7.876923 3.938462-3.938462 3.938462-3.938462 7.876923-3.938461h287.507693V181.169231c0-7.876923 3.938462-11.815385 7.876923-15.753846-7.876923-3.938462 0-7.876923 3.938461-7.876923h47.261539c3.938462 0 11.815385 3.938462 15.753846 7.876923 3.938462 3.938462 7.876923 11.815385 7.876923 15.753846v126.030769H2638.769231c3.938462 0 3.938462 0 7.876923 3.938462s3.938462 3.938462 3.938461 7.876923v15.753846c0 3.938462 0 7.876923-3.938461 7.876923-3.938462 3.938462-3.938462 3.938462-7.876923 3.938461h-287.507693v181.169231H2481.230769v-7.876923c0-7.876923 3.938462-11.815385 7.876923-15.753846 3.938462-3.938462 7.876923-7.876923 15.753846-7.876923h47.261539c3.938462 0 11.815385 3.938462 15.753846 7.876923 3.938462 3.938462 7.876923 7.876923 7.876923 15.753846v350.523077c0 7.876923-3.938462 11.815385-7.876923 15.753846-3.938462 3.938462-7.876923 7.876923-15.753846 7.876923h-47.261539c-3.938462 0-11.815385-3.938462-15.753846-7.876923-7.876923 0-7.876923-7.876923-7.876923-11.815384v-31.507693h-342.646154v31.507693c0 7.876923-3.938462 11.815385-7.876923 15.753846-3.938462 3.938462-7.876923 7.876923-15.753846 7.876923h-47.261538c-3.938462 0-7.876923-3.938462-15.753846-7.876923-3.938462-3.938462-7.876923-11.815385-7.876924-15.753846v-342.646154zM3154.707692 228.430769c0-7.876923 3.938462-11.815385 7.876923-15.753846 3.938462-3.938462 7.876923-7.876923 15.753847-7.876923h35.446153c3.938462 0 11.815385 3.938462 15.753847 7.876923v15.753846h86.646153c3.938462-15.753846 11.815385-19.692308 27.569231-19.692307h23.630769c11.815385 0 15.753846 3.938462 19.692308 7.876923 3.938462 3.938462 3.938462 11.815385 3.938462 19.692307v342.646154c0 23.630769-3.938462 43.323077-7.876923 59.076923-3.938462 15.753846-19.692308 27.569231-39.384616 35.446154-7.876923 3.938462-15.753846 3.938462-23.630769 7.876923-7.876923 0-15.753846 3.938462-27.569231 3.938462h-19.692308c-3.938462 0-7.876923-3.938462-11.815384-11.815385l-11.815385-23.630769c-3.938462-7.876923-7.876923-11.815385-7.876923-19.692308-3.938462-3.938462-3.938462-7.876923 0-15.753846 0-3.938462 3.938462-7.876923 7.876923-7.876923l31.507693-3.938462c11.815385-3.938462 19.692308-7.876923 23.630769-15.753846 3.938462-7.876923 7.876923-19.692308 7.876923-35.446154V267.815385H3229.538462v488.36923c0 7.876923-3.938462 11.815385-7.876924 15.753847-3.938462 3.938462-7.876923 7.876923-15.753846 7.876923h-35.446154c-3.938462 0-11.815385-3.938462-15.753846-7.876923-3.938462-3.938462-7.876923-7.876923-7.876923-15.753847V228.430769z m-216.615384 421.415385c-3.938462-7.876923 0-11.815385 0-19.692308l11.815384-11.815384 7.876923-3.938462V244.184615c0-7.876923 3.938462-11.815385 7.876923-15.753846 3.938462-3.938462 7.876923-7.876923 15.753847-7.876923h35.446153c3.938462 0 7.876923 0 11.815385 3.938462 11.815385-7.876923 23.630769-15.753846 35.446154-27.569231 11.815385-7.876923 19.692308-19.692308 31.507692-31.507692 3.938462-3.938462 7.876923-7.876923 15.753846-7.876923s11.815385 3.938462 15.753847 7.876923l15.753846 15.753846c0 7.876923 3.938462 11.815385 7.876923 15.753846 3.938462 7.876923 7.876923 11.815385 3.938461 19.692308 0 3.938462-7.876923 11.815385-11.815384 11.815384-15.753846 7.876923-31.507692 15.753846-47.261539 19.692308-15.753846 3.938462-35.446154 7.876923-59.076923 11.815385v326.892307l90.584616-35.446154h7.876923c3.938462 0 3.938462 3.938462 3.938461 7.876923s3.938462 7.876923 3.938462 7.876924v7.876923l-27.569231 27.56923c-11.815385 11.815385-23.630769 23.630769-39.384615 31.507693-15.753846 11.815385-27.569231 23.630769-43.323077 35.446154-15.753846 11.815385-27.569231 19.692308-39.384616 27.56923-7.876923 3.938462-11.815385 7.876923-19.692307 3.938462-7.876923 0-11.815385-3.938462-15.753847-11.815385l-19.692307-39.384615zM2776.615385 181.169231c-3.938462-3.938462 0-7.876923 3.938461-15.753846s11.815385-7.876923 15.753846-7.876923c11.815385 3.938462 23.630769 11.815385 31.507693 15.753846 11.815385 7.876923 19.692308 11.815385 31.507692 19.692307 7.876923 7.876923 15.753846 11.815385 23.630769 19.692308 7.876923 7.876923 11.815385 11.815385 15.753846 19.692308 3.938462 7.876923 7.876923 15.753846 7.876923 23.630769 0 7.876923 0 15.753846-7.876923 27.569231-3.938462 3.938462-3.938462 11.815385-7.876923 15.753846-3.938462 7.876923-7.876923 11.815385-15.753846 15.753846-7.876923 7.876923-15.753846 11.815385-27.569231 7.876923-7.876923 0-15.753846-7.876923-19.692307-23.630769l-23.63077-59.076923c0-15.753846-11.815385-35.446154-27.56923-59.076923z m-55.138462 657.723077c-3.938462-3.938462-3.938462-11.815385-3.938461-15.753846 0-3.938462 3.938462-7.876923 11.815384-11.815385 31.507692-19.692308 59.076923-35.446154 82.707692-51.2V472.615385h-66.953846c-7.876923 0-11.815385-3.938462-11.815384-15.753847v-11.815384c0-7.876923 3.938462-11.815385 11.815384-11.815385h66.953846v-7.876923c0-7.876923 3.938462-11.815385 7.876924-15.753846 3.938462-3.938462 7.876923-7.876923 15.753846-7.876923h39.384615c3.938462 0 11.815385 3.938462 15.753846 7.876923 3.938462 3.938462 7.876923 11.815385 7.876923 15.753846V748.307692c7.876923 7.876923 15.753846 15.753846 27.569231 23.63077 7.876923 3.938462 19.692308 11.815385 27.569231 15.753846 11.815385 3.938462 23.630769 7.876923 39.384615 7.876923 15.753846 3.938462 31.507692 3.938462 51.2 3.938461 11.815385 0 27.569231 0 47.261539 3.938462H3308.307692c23.630769 0 47.261538 0 66.953846-3.938462 19.692308 0 39.384615 0 55.138462-3.938461 7.876923 0 11.815385 0 11.815385 3.938461v11.815385c-3.938462 7.876923-3.938462 15.753846-7.876923 23.630769l-11.815385 23.630769c-3.938462 7.876923-7.876923 11.815385-11.815385 15.753847-3.938462 0-11.815385 3.938462-23.630769 3.938461h-295.384615c-19.692308 0-31.507692 0-43.323077-3.938461-23.630769-3.938462-43.323077-3.938462-63.015385-7.876924-15.753846-3.938462-31.507692-11.815385-47.261538-19.692307-11.815385-7.876923-27.569231-19.692308-35.446154-31.507693-11.815385-11.815385-19.692308-27.569231-31.507692-43.323076-3.938462 7.876923-11.815385 15.753846-15.753847 27.56923-7.876923 11.815385-11.815385 19.692308-19.692307 31.507693-7.876923 11.815385-15.753846 19.692308-23.63077 31.507692-7.876923 7.876923-15.753846 19.692308-19.692307 27.569231-7.876923 7.876923-11.815385 11.815385-19.692308 7.876923-7.876923 0-11.815385-3.938462-15.753846-11.815385 0 0-3.938462-3.938462-3.938462-7.876923-3.938462-3.938462-3.938462-7.876923-7.876923-15.753846-3.938462-3.938462-3.938462-7.876923-7.876923-15.753846-15.753846 0-15.753846-3.938462-15.753846-7.876923zM3847.876923 492.307692c19.692308-11.815385 35.446154-27.569231 51.2-39.384615 15.753846-15.753846 31.507692-27.569231 47.261539-47.261539h-181.169231l-19.692308 19.692308c15.753846 15.753846 31.507692 27.569231 51.2 39.384616 15.753846 7.876923 35.446154 15.753846 51.2 27.56923z m-126.030769 326.892308h271.753846v-122.092308h-271.753846v122.092308z m-78.769231-149.661538c0-7.876923 3.938462-11.815385 7.876923-15.753847 3.938462-3.938462 7.876923-7.876923 15.753846-7.876923h39.384616c3.938462 0 7.876923 0 11.815384 3.938462 3.938462 3.938462 7.876923 7.876923 7.876923 11.815384h275.692308c0-7.876923 3.938462-11.815385 7.876923-15.753846 3.938462-3.938462 7.876923-3.938462 11.815385-3.938461h43.323077c3.938462 0 11.815385 3.938462 15.753846 7.876923 3.938462 3.938462 7.876923 11.815385 7.876923 15.753846v208.738462c0 7.876923-3.938462 11.815385-7.876923 15.753846-3.938462 3.938462-7.876923 7.876923-15.753846 7.876923H4017.230769c-3.938462 0-11.815385-3.938462-15.753846-7.876923-3.938462-3.938462-7.876923-7.876923-7.876923-15.753846v-19.692308h-271.753846v19.692308c0 7.876923-3.938462 11.815385-7.876923 15.753846-3.938462 3.938462-7.876923 7.876923-15.753846 7.876923h-39.384616c-3.938462 0-11.815385-3.938462-15.753846-7.876923-3.938462-3.938462-7.876923-11.815385-7.876923-15.753846V669.538462z m441.107692-385.969231H3627.323077c0 19.692308-3.938462 39.384615-7.876923 59.076923-3.938462 15.753846-11.815385 31.507692-19.692308 39.384615-11.815385 15.753846-27.569231 15.753846-39.384615 0-11.815385-11.815385-19.692308-23.630769-27.569231-39.384615-3.938462-7.876923-3.938462-15.753846-3.938462-23.630769 0-7.876923 7.876923-11.815385 15.753847-19.692308 15.753846-15.753846 27.569231-27.569231 35.446153-43.323077 7.876923-11.815385 15.753846-31.507692 23.63077-47.261538 0-3.938462 3.938462-3.938462 3.938461-3.938462h7.876923c3.938462 0 3.938462 3.938462 7.876923 3.938462s3.938462 3.938462 3.938462 3.938461v31.507692h208.738461l-23.630769-35.446153c-7.876923-11.815385-15.753846-23.630769-27.569231-35.446154-3.938462-3.938462-3.938462-7.876923 0-11.815385 7.876923-3.938462 11.815385-3.938462 15.753847-3.938461 19.692308 3.938462 35.446154 7.876923 55.138461 11.815384 15.753846 3.938462 31.507692 11.815385 43.323077 15.753846 7.876923 3.938462 15.753846 11.815385 15.753846 15.753846 0 7.876923 0 11.815385-3.938461 19.692308-3.938462 3.938462-3.938462 7.876923-7.876923 11.815385-3.938462 3.938462-3.938462 7.876923-7.876923 7.876923h204.8l3.938461-11.815385c3.938462-11.815385 7.876923-15.753846 15.753846-19.692307 7.876923-3.938462 15.753846 0 23.630769 3.938461 15.753846 7.876923 27.569231 15.753846 43.323077 27.569231 7.876923 7.876923 11.815385 11.815385 11.815385 19.692308s-3.938462 11.815385-7.876923 19.692307c-11.815385 11.815385-23.630769 23.630769-43.323077 39.384616-19.692308 15.753846-35.446154 27.569231-59.076923 39.384615h-7.876923c-3.938462 0-3.938462-3.938462-7.876923-3.938462-3.938462-3.938462-3.938462-3.938462-3.938462-7.876923v-7.876923l15.753846-55.138461z m-527.753846 236.307692c39.384615-35.446154 74.830769-70.892308 102.4-102.4 27.569231-31.507692 55.138462-66.953846 74.830769-106.338461 7.876923-11.815385 15.753846-19.692308 31.507693-11.815385 7.876923 3.938462 15.753846 3.938462 19.692307 7.876923 3.938462 3.938462 11.815385 3.938462 19.692308 7.876923 15.753846 7.876923 15.753846 19.692308 7.876923 31.507692-3.938462 3.938462-3.938462 7.876923-7.876923 11.815385-3.938462 3.938462-3.938462 7.876923-7.876923 11.815385h181.169231c3.938462-3.938462 3.938462-3.938462 3.938461-7.876923s3.938462-3.938462 3.938462-7.876924c3.938462-7.876923 7.876923-11.815385 15.753846-11.815384 7.876923-3.938462 11.815385 0 19.692308 3.938461 15.753846 7.876923 27.569231 15.753846 39.384615 23.63077 3.938462 3.938462 7.876923 7.876923 11.815385 15.753846 0 7.876923 0 11.815385-7.876923 19.692307-19.692308 23.630769-39.384615 43.323077-59.076923 66.953847-19.692308 19.692308-47.261538 39.384615-70.892308 59.076923 39.384615 11.815385 82.707692 19.692308 126.030769 27.56923 43.323077 3.938462 94.523077 11.815385 145.723077 11.815385 7.876923 0 11.815385 3.938462 11.815385 7.876923s0 7.876923-3.938462 15.753846c-11.815385 19.692308-23.630769 35.446154-35.446154 47.261539-3.938462 3.938462-11.815385 7.876923-15.753846 11.815384h-27.569231c-51.2-7.876923-98.461538-15.753846-145.723077-27.56923-47.261538-11.815385-90.584615-27.569231-129.96923-51.2-43.323077 19.692308-94.523077 39.384615-149.661539 55.138461-55.138462 15.753846-126.030769 31.507692-204.8 39.384616-3.938462 0-3.938462 0-7.876923-3.938462 0-3.938462-3.938462-3.938462-3.938461-7.876923v-7.876923c0-3.938462 0-3.938462 3.938461-3.938462 63.015385-15.753846 118.153846-35.446154 165.415385-55.138461 47.261538-19.692308 90.584615-39.384615 126.030769-59.076923-11.815385-11.815385-27.569231-23.630769-39.384615-35.446154-11.815385-11.815385-23.630769-27.569231-35.446154-43.323077-19.692308 15.753846-43.323077 35.446154-70.892308 51.2s-55.138462 31.507692-82.707692 43.323077h-7.876923c-3.938462 0-3.938462-3.938462-3.938462-7.876923s-3.938462-3.938462-3.938461-7.876923c11.815385-7.876923 11.815385-11.815385 11.815384-11.815385z" fill="#333333" p-id="2908"></path><path d="M984.615385 496.246154c0 271.753846-220.553846 496.246154-492.307693 496.246154C220.553846 988.553846 0 768 0 496.246154S220.553846 0 492.307692 0 984.615385 220.553846 984.615385 496.246154" fill="#C30D23" p-id="2909"></path><path d="M590.769231 531.692308l15.753846 19.692307c3.938462 7.876923 15.753846 11.815385 23.630769 7.876923l78.769231-19.692307c-19.692308 98.461538-110.276923 169.353846-216.615385 161.476923-98.461538-11.815385-177.230769-86.646154-189.046154-181.169231-11.815385-126.030769 82.707692-228.430769 200.861539-228.430769 51.2 0 98.461538 19.692308 133.907692 51.2 15.753846 15.753846 43.323077 19.692308 63.015385 7.876923l63.015384-35.446154c23.630769-15.753846 27.569231-47.261538 11.815385-66.953846-74.830769-78.769231-181.169231-126.030769-299.323077-114.215385-181.169231 15.753846-322.953846 165.415385-334.769231 346.584616-11.815385 212.676923 157.538462 385.969231 366.276923 385.96923 82.707692 0 161.476923-27.569231 224.492308-78.76923l27.569231 153.6c3.938462 15.753846 27.569231 15.753846 27.569231 0l70.892307-551.384616c3.938462-19.692308-15.753846-31.507692-31.507692-23.630769l-220.553846 114.215385c-27.569231 7.876923-31.507692 35.446154-15.753846 51.2" fill="#FFFFFF" p-id="2910"></path><path d="M110.276923 996.430769l185.107692-70.892307-153.6-126.03077z" fill="#C30D23" p-id="2911"></path><path d="M4718.276923 760.123077c-7.876923-3.938462-11.815385-3.938462-11.815385-7.876923s7.876923-3.938462 15.753847-7.876923c3.938462 0 7.876923 0 15.753846-3.938462 7.876923 0 11.815385-3.938462 19.692307-3.938461 7.876923-3.938462 15.753846-3.938462 23.63077-7.876923s15.753846-3.938462 19.692307-7.876923c15.753846-7.876923 27.569231-11.815385 43.323077-19.692308s31.507692-11.815385 47.261539-15.753846c-3.938462-3.938462-3.938462-15.753846-3.938462-23.63077s0-27.569231 3.938462-51.2c3.938462-31.507692 7.876923-66.953846 15.753846-102.4 7.876923-35.446154 15.753846-70.892308 27.569231-106.338461-11.815385 3.938462-27.569231 7.876923-39.384616 15.753846-11.815385 3.938462-27.569231 7.876923-39.384615 15.753846-11.815385 3.938462-23.630769 7.876923-35.446154 7.876923-11.815385 0-23.630769-3.938462-31.507692-7.876923-7.876923-3.938462-11.815385-7.876923-7.876923-11.815384 0-3.938462 3.938462-3.938462 11.815384-3.938462 11.815385 0 19.692308 0 31.507693-3.938461 11.815385 0 23.630769-3.938462 35.446153-7.876924 7.876923-3.938462 19.692308-7.876923 35.446154-11.815384 15.753846-3.938462 31.507692-7.876923 47.261539-15.753846 3.938462-15.753846 11.815385-31.507692 15.753846-43.323077 3.938462-15.753846 11.815385-27.569231 15.753846-39.384616 3.938462-11.815385 11.815385-15.753846 19.692308-19.692307 7.876923-3.938462 15.753846 0 19.692307 3.938461l7.876924 7.876923h-11.815385c-3.938462 0-11.815385 0-15.753846 3.938462s-7.876923 7.876923-7.876923 15.753846c-3.938462 11.815385-3.938462 23.630769-3.938462 31.507692 0 7.876923-3.938462 19.692308-7.876923 27.569231 15.753846-3.938462 31.507692-11.815385 47.261539-15.753846s31.507692-11.815385 47.261538-15.753846c-7.876923-3.938462-11.815385-11.815385-15.753846-15.753846-3.938462-3.938462-7.876923-11.815385-15.753846-19.692308-3.938462-7.876923-7.876923-11.815385-3.938462-7.876923 3.938462 0 7.876923 3.938462 15.753846 7.876923s15.753846 7.876923 23.63077 15.753846c7.876923 7.876923 15.753846 11.815385 27.56923 15.753846 7.876923 3.938462 11.815385 7.876923 7.876923 11.815385 0 3.938462-7.876923 7.876923-19.692307 11.815384-15.753846 3.938462-31.507692 7.876923-51.2 15.753847-19.692308 3.938462-35.446154 11.815385-55.138462 19.692307-3.938462 0-3.938462 0-7.876923 3.938462s-3.938462 3.938462-7.876923 3.938461l-3.938462 7.876923c-7.876923 15.753846-11.815385 31.507692-19.692307 55.138462-3.938462 19.692308-11.815385 47.261538-15.753846 78.769231 11.815385-23.630769 23.630769-39.384615 35.446153-55.138462 11.815385-15.753846 23.630769-23.630769 39.384616-35.446154 3.938462-3.938462 11.815385-7.876923 15.753846-7.876923 3.938462-3.938462 11.815385-3.938462 15.753846 0 3.938462 0 11.815385 3.938462 15.753846 7.876923 3.938462 3.938462 11.815385 11.815385 15.753846 23.63077 3.938462 7.876923 3.938462 15.753846 7.876924 23.630769v19.692308c0 3.938462-3.938462 11.815385-3.938462 27.56923s-3.938462 23.630769-3.938462 39.384616c0 7.876923-3.938462 19.692308-3.938461 35.446154-3.938462 15.753846-3.938462 27.569231-7.876923 43.323076h35.446154c23.630769 0 47.261538-3.938462 66.953846-7.876923 11.815385-3.938462 19.692308-3.938462 23.630769 0 7.876923 0 11.815385 3.938462 15.753846 7.876923 7.876923 7.876923 11.815385 11.815385 11.815385 15.753847 0 3.938462-7.876923 3.938462-15.753846 3.938461-11.815385 0-23.630769 3.938462-39.384616 7.876923s-39.384615 11.815385-66.953846 23.630769c-11.815385 3.938462-19.692308 7.876923-23.630769 3.938462s0-3.938462 11.815385-7.876923 23.630769-7.876923 35.446153-15.753846c11.815385-3.938462 23.630769-11.815385 39.384616-19.692308-15.753846 0-31.507692 3.938462-47.261539 3.938462-15.753846 0-35.446154 3.938462-51.2 7.876923 0 3.938462 0 3.938462-3.938461 7.876923 0 3.938462 0 3.938462-3.938462 7.876923l-7.876923 15.753846c-3.938462 3.938462-7.876923 3.938462-11.815384 3.938462-3.938462 0-7.876923 0-7.876924-7.876924s3.938462-11.815385 7.876924-27.56923c-35.446154 3.938462-70.892308 15.753846-106.338462 23.630769-35.446154 11.815385-70.892308 27.569231-110.276923 47.261538-11.815385 7.876923-23.630769 11.815385-35.446154 15.753847-11.815385 3.938462-19.692308 3.938462-27.569231 3.938461h-19.692307c3.938462-15.753846 0-15.753846-3.938462-15.753846z m220.553846-220.553846c0 3.938462-3.938462 3.938462-3.938461 7.876923 3.938462-3.938462 11.815385-7.876923 15.753846-11.815385 3.938462-3.938462 11.815385-3.938462 19.692308-7.876923 3.938462 0 7.876923-3.938462 11.815384-3.938461h11.815385c3.938462 0 3.938462 3.938462 7.876923 7.876923s3.938462 7.876923 3.938461 15.753846v19.692308c0 3.938462 0 11.815385-3.938461 19.692307 0 7.876923-3.938462 15.753846-7.876923 23.630769-3.938462 7.876923-7.876923 19.692308-15.753846 31.507693-3.938462 7.876923-7.876923 15.753846-11.815385 19.692307 23.630769-3.938462 43.323077-11.815385 63.015385-11.815384 3.938462-15.753846 7.876923-31.507692 7.876923-51.2 3.938462-19.692308 3.938462-35.446154 7.876923-55.138462v-47.261538c0-15.753846 0-23.630769-3.938462-31.507692-3.938462-7.876923-7.876923-15.753846-11.815384-15.753847-3.938462 0-11.815385 0-19.692308 3.938462s-15.753846 11.815385-31.507692 23.630769c-11.815385 19.692308-23.630769 35.446154-39.384616 63.015385z m-15.753846 35.446154c-3.938462 15.753846-7.876923 35.446154-7.876923 51.2v51.2c3.938462 0 11.815385-3.938462 15.753846-3.938462 3.938462 0 7.876923-3.938462 15.753846-3.938461 3.938462-3.938462 7.876923-11.815385 11.815385-19.692308 3.938462-3.938462 7.876923-11.815385 11.815385-19.692308 3.938462-7.876923 7.876923-15.753846 7.876923-23.630769 3.938462-7.876923 3.938462-15.753846 3.938461-23.630769v-19.692308c0-3.938462 0-7.876923-3.938461-11.815385-3.938462-3.938462-3.938462-3.938462-7.876923-3.938461s-11.815385 3.938462-15.753847 7.876923c-11.815385 7.876923-19.692308 11.815385-31.507692 19.692308z m-94.523077 212.676923l7.876923-7.876923c3.938462-3.938462 3.938462-3.938462 7.876923-3.938462v3.938462c0 3.938462-3.938462 7.876923-3.938461 15.753846-3.938462 7.876923-3.938462 15.753846 0 19.692307 3.938462 3.938462 11.815385 0 23.630769-7.876923s19.692308-15.753846 31.507692-19.692307c11.815385-7.876923 19.692308-11.815385 31.507693-15.753846 7.876923-3.938462 19.692308-7.876923 27.56923-11.815385 7.876923-3.938462 15.753846-7.876923 23.63077-7.876923 11.815385-3.938462 19.692308-3.938462 19.692307 0s-3.938462 7.876923-15.753846 11.815384c-3.938462 3.938462-11.815385 7.876923-19.692308 11.815385s-15.753846 7.876923-27.56923 15.753846c-7.876923 3.938462-19.692308 11.815385-27.569231 19.692308-7.876923 7.876923-19.692308 15.753846-27.569231 23.630769-7.876923 7.876923-19.692308 15.753846-27.569231 15.753846-7.876923 0-15.753846 0-19.692307-3.938461-3.938462 0-3.938462-3.938462-3.938462-7.876923V827.076923c0-3.938462 0-11.815385 3.938462-15.753846-7.876923-15.753846-7.876923-19.692308-3.938462-23.630769z m271.753846-55.138462c-7.876923-3.938462-11.815385-7.876923-7.876923-11.815384 3.938462 0 7.876923 0 15.753846 3.938461 27.569231 11.815385 43.323077 27.569231 47.261539 43.323077s7.876923 31.507692 0 51.2c-3.938462 11.815385-7.876923 15.753846-11.815385 15.753846-3.938462 0-7.876923-3.938462-15.753846-7.876923-3.938462-3.938462-11.815385-7.876923-15.753846-7.876923-7.876923-3.938462-11.815385-3.938462-15.753846-3.938462-7.876923 0-19.692308-3.938462-31.507693-11.815384l-7.876923-7.876923c0-3.938462 3.938462-3.938462 19.692308 0s27.569231 7.876923 35.446154 7.876923c11.815385 0 15.753846 0 19.692308-7.876923 3.938462-3.938462 3.938462-15.753846 0-23.630769s-19.692308-27.569231-31.507693-39.384616z m409.6-228.430769z m0 0c3.938462-11.815385 3.938462-15.753846 7.876923-11.815385 0 3.938462 3.938462 7.876923 3.938462 19.692308 0 7.876923-3.938462 27.569231-11.815385 47.261538v43.323077c7.876923-7.876923 15.753846-19.692308 23.63077-27.56923s15.753846-19.692308 23.630769-27.569231c7.876923-7.876923 15.753846-15.753846 19.692307-23.630769 7.876923-7.876923 11.815385-15.753846 15.753847-19.692308 3.938462-3.938462 7.876923-11.815385 11.815384-15.753846s7.876923-3.938462 15.753846-3.938462h19.692308c7.876923 0 15.753846-3.938462 23.630769-7.876923 15.753846-3.938462 31.507692-11.815385 43.323077-15.753846 11.815385-3.938462 27.569231-7.876923 39.384616-11.815385v-31.507692V354.461538c0-15.753846-3.938462-23.630769-3.938462-23.630769-11.815385-15.753846-15.753846-23.630769-15.753846-23.630769 3.938462-3.938462 15.753846 3.938462 39.384615 15.753846 11.815385 3.938462 15.753846 11.815385 19.692308 15.753846 0 3.938462 0 7.876923-3.938462 15.753846s-7.876923 19.692308-7.876923 35.446154-3.938462 31.507692-3.938461 55.138462v3.938461c11.815385-3.938462 19.692308-7.876923 27.569231-7.876923 7.876923-3.938462 15.753846-3.938462 23.630769-7.876923 11.815385-3.938462 19.692308-3.938462 23.630769-3.938461s7.876923 3.938462 11.815385 7.876923c3.938462 7.876923 0 11.815385 0 11.815384-3.938462 3.938462-11.815385 3.938462-27.569231 3.938462-7.876923 0-15.753846 3.938462-27.569231 3.938461-7.876923 0-19.692308 3.938462-31.507692 7.876924v23.630769c3.938462-7.876923 3.938462-11.815385 7.876923-11.815385s3.938462 3.938462 7.876923 7.876923c3.938462 11.815385 7.876923 19.692308 7.876923 23.630769 0 3.938462-3.938462 7.876923-7.876923 11.815385-3.938462 3.938462-7.876923 7.876923-15.753846 11.815385v244.184615c0 15.753846-3.938462 23.630769-7.876923 27.569231-3.938462 0-15.753846-3.938462-27.569231-11.815385-7.876923-3.938462-15.753846-11.815385-23.630769-15.753846-11.815385-7.876923-19.692308-15.753846-31.507693-23.630769-11.815385-7.876923-19.692308-15.753846-27.56923-23.630769-7.876923-7.876923-15.753846-15.753846-19.692308-23.63077-11.815385-15.753846-19.692308-23.630769-15.753846-27.56923s7.876923 0 15.753846 11.815384l19.692308 19.692308c7.876923 7.876923 15.753846 11.815385 23.630769 19.692308 7.876923 7.876923 15.753846 11.815385 23.630769 15.753846 7.876923 3.938462 15.753846 7.876923 19.692308 11.815384 11.815385 3.938462 19.692308 7.876923 23.630769 3.938462 3.938462-3.938462 3.938462-15.753846 3.938462-31.507692v-23.63077-43.323077-114.215384l-3.938462 3.938461c-15.753846 19.692308-31.507692 35.446154-47.261538 47.261539s-27.569231 23.630769-39.384616 31.507692-27.569231 15.753846-39.384615 19.692308c-11.815385 3.938462-27.569231 7.876923-43.323077 11.815384-3.938462 0-7.876923 3.938462-11.815385 3.938462h-7.876923s-3.938462 0 0 0c0 0 3.938462-3.938462 7.876923-3.938462 31.507692-11.815385 63.015385-27.569231 90.584616-47.261538 31.507692-19.692308 59.076923-51.2 90.584615-94.523077l3.938462-7.876923v-27.569231-23.630769c-15.753846 3.938462-27.569231 7.876923-39.384616 15.753846-11.815385 3.938462-23.630769 11.815385-31.507692 15.753846-11.815385 7.876923-19.692308 7.876923-27.569231 7.876923-7.876923 0-19.692308-3.938462-31.507692-11.815384h-7.876923c-3.938462 0-7.876923 3.938462-11.815385 7.876923-15.753846 23.630769-31.507692 43.323077-47.261538 59.076923s-27.569231 35.446154-47.261539 55.138461v110.276924c0 11.815385 0 27.569231 3.938462 35.446153 0 11.815385 3.938462 19.692308 3.938461 23.63077 3.938462 15.753846 3.938462 27.569231 0 27.56923s-7.876923-3.938462-15.753846-19.692307c-3.938462-11.815385-11.815385-19.692308-11.815384-31.507693s-3.938462-23.630769-3.938462-39.384615v-31.507692-39.384616c-15.753846 11.815385-27.569231 23.630769-43.323077 31.507693-11.815385 7.876923-19.692308 11.815385-27.569231 11.815384-3.938462 0-7.876923-3.938462-7.876923-7.876923V669.538462l7.876923-7.876924c3.938462-3.938462 7.876923-3.938462 15.753846-7.876923 3.938462-3.938462 11.815385-7.876923 15.753847-11.815384l23.630769-35.446154c7.876923-11.815385 11.815385-23.630769 19.692308-35.446154V551.384615v-19.692307-23.63077-23.630769c-7.876923 7.876923-19.692308 11.815385-27.569231 19.692308-7.876923 7.876923-19.692308 11.815385-27.569231 19.692308s-15.753846 11.815385-19.692308 15.753846c-7.876923 3.938462-11.815385 7.876923-11.815384 11.815384-7.876923 7.876923-15.753846 11.815385-19.692308 11.815385h-15.753846c-3.938462 0-7.876923-3.938462-11.815385-3.938462-3.938462-3.938462-7.876923-3.938462-11.815384-7.876923l-11.815385-11.815384c3.938462 0 7.876923 0 19.692308 3.938461 3.938462 0 7.876923 3.938462 15.753846 0 3.938462 0 11.815385-3.938462 23.630769-7.876923s23.630769-11.815385 39.384615-23.630769 39.384615-27.569231 63.015385-47.261538c0-11.815385 3.938462-23.630769 3.938462-31.507693s3.938462-19.692308 3.938461-23.630769v-19.692308c0-7.876923-3.938462-19.692308-11.815384-27.56923-7.876923-7.876923-11.815385-15.753846-7.876924-15.753847 3.938462 0 11.815385 3.938462 31.507693 15.753847 3.938462 3.938462 7.876923 7.876923 11.815384 7.876923 3.938462 3.938462 3.938462 7.876923 3.938462 11.815384v15.753846c0 7.876923-3.938462 15.753846-3.938462 27.569231-3.938462 7.876923-3.938462 15.753846-3.938461 19.692308l3.938461-3.938462c11.815385-7.876923 23.630769-15.753846 31.507693-19.692307 7.876923-3.938462 15.753846-3.938462 19.692307 0 3.938462 3.938462 3.938462 3.938462 3.938462 7.876923s-3.938462 7.876923-7.876923 7.876923-11.815385 3.938462-19.692308 11.815384c-11.815385 7.876923-19.692308 15.753846-35.446154 23.63077v31.507692z m-23.630769 118.153846v-7.876923-7.876923c-3.938462 3.938462-7.876923 11.815385-7.876923 15.753846-3.938462 3.938462-7.876923 11.815385-7.876923 15.753846l15.753846-15.753846z m740.430769-181.169231c-7.876923 0-7.876923-3.938462-7.876923-3.938461 0-3.938462 7.876923-3.938462 15.753846-3.938462 15.753846 0 31.507692 3.938462 39.384616 11.815385 7.876923 7.876923 11.815385 19.692308 7.876923 31.507692-3.938462 15.753846-7.876923 35.446154-11.815385 55.138462-3.938462 19.692308-7.876923 35.446154-15.753846 47.261538-3.938462 7.876923-3.938462 15.753846-7.876923 27.569231-3.938462 7.876923-7.876923 19.692308-11.815385 31.507692 11.815385 0 23.630769-3.938462 39.384616-3.938461s31.507692-3.938462 47.261538-3.938462h90.584616c7.876923 0 15.753846 3.938462 23.630769 3.938462s11.815385 3.938462 15.753846 11.815384c3.938462 3.938462 7.876923 7.876923 3.938462 11.815385-3.938462 3.938462-7.876923 3.938462-15.753847 0-3.938462-3.938462-11.815385-3.938462-15.753846-3.938462-7.876923 0-15.753846-3.938462-23.630769-3.938461h-78.769231c-15.753846 0-27.569231 3.938462-43.323077 3.938461-15.753846 0-27.569231 3.938462-43.323077 3.938462 0 3.938462 0 7.876923-3.938461 7.876923 0 3.938462-3.938462 7.876923-3.938462 7.876923-3.938462 15.753846-11.815385 31.507692-19.692307 47.261539-7.876923 15.753846-19.692308 27.569231-31.507693 43.323076-11.815385 11.815385-23.630769 23.630769-39.384615 31.507693-15.753846 7.876923-31.507692 15.753846-47.261539 19.692307h-7.876923s-3.938462 0-3.938461-3.938461c0 0 0-3.938462 3.938461-3.938462s3.938462-3.938462 7.876923-3.938461c7.876923-3.938462 19.692308-7.876923 27.569231-11.815385s19.692308-15.753846 31.507693-23.630769c7.876923-7.876923 19.692308-19.692308 27.56923-31.507692 7.876923-11.815385 15.753846-23.630769 19.692308-31.507693 3.938462-15.753846 11.815385-27.569231 15.753846-47.261538-11.815385 3.938462-27.569231 7.876923-43.323077 11.815385l-47.261538 11.815384c-15.753846 3.938462-27.569231 7.876923-43.323077 15.753846-11.815385 3.938462-23.630769 7.876923-31.507692 11.815385-11.815385 3.938462-23.630769 11.815385-35.446154 11.815385s-19.692308 3.938462-31.507693 0c-7.876923 0-11.815385-3.938462-11.815384-3.938462 0-3.938462 7.876923-3.938462 23.630769-11.815385 23.630769-7.876923 43.323077-15.753846 66.953846-23.630769 19.692308-7.876923 43.323077-11.815385 63.015385-19.692308 19.692308-3.938462 35.446154-11.815385 55.138461-15.753846 15.753846-3.938462 31.507692-7.876923 43.323077-11.815384 7.876923-27.569231 19.692308-55.138462 27.569231-82.707693s15.753846-55.138462 19.692308-82.707692c3.938462-7.876923 0-15.753846-3.938462-23.630769-11.815385 3.938462-23.630769 0-35.446154-3.938462z m-126.030769-39.384615c11.815385-3.938462 27.569231-7.876923 43.323077-11.815385 15.753846-3.938462 35.446154-7.876923 55.138462-11.815384 19.692308-3.938462 39.384615-7.876923 63.015384-7.876923 23.630769-3.938462 47.261538-3.938462 70.892308-7.876923h51.2c11.815385 0 23.630769 3.938462 31.507692 11.815384 7.876923 3.938462 11.815385 7.876923 15.753846 15.753846 3.938462 3.938462 7.876923 11.815385 11.815385 15.753846 3.938462 7.876923 3.938462 11.815385 3.938461 15.753847 0 3.938462-3.938462 7.876923-15.753846 7.876923-15.753846 3.938462-31.507692 7.876923-51.2 11.815384-15.753846 3.938462-35.446154 7.876923-59.076923 11.815385-11.815385 3.938462-15.753846 3.938462-19.692307 0-3.938462 0 0-3.938462 11.815384-7.876923s23.630769-7.876923 31.507692-7.876923c7.876923-3.938462 15.753846-3.938462 23.63077-7.876923s11.815385-3.938462 19.692307-7.876923c3.938462-3.938462 11.815385-3.938462 15.753847-7.876923 3.938462-3.938462 7.876923-3.938462 7.876923-7.876924s-3.938462-7.876923-7.876923-11.815384c-3.938462-3.938462-7.876923-7.876923-15.753847-7.876923s-15.753846-3.938462-23.630769-3.938462c-19.692308 0-43.323077 0-70.892308 3.938462s-51.2 3.938462-74.830769 7.876923c-23.630769 3.938462-47.261538 7.876923-66.953846 11.815384-19.692308 3.938462-35.446154 7.876923-43.323077 11.815385-3.938462 3.938462-11.815385 3.938462-19.692308 7.876923l-23.630769 11.815385v7.876923c-3.938462 7.876923-3.938462 15.753846-7.876923 23.630769-3.938462 7.876923-3.938462 11.815385-7.876923 19.692308s-3.938462 11.815385-7.876923 19.692307l-11.815385 23.63077c-7.876923 11.815385-11.815385 19.692308-11.815384 19.692307s-3.938462-3.938462-7.876923-15.753846c0-3.938462 0-7.876923 3.938461-11.815384 3.938462-3.938462 7.876923-11.815385 11.815385-19.692308 3.938462-3.938462 7.876923-15.753846 11.815384-27.569231l11.815385-35.446154c3.938462-7.876923 3.938462-19.692308 3.938462-31.507692 0-11.815385-3.938462-23.630769-7.876923-31.507692-3.938462-7.876923-3.938462-11.815385 0-15.753846 3.938462 0 3.938462 0 11.815384 7.876923 3.938462 7.876923 7.876923 15.753846 7.876923 23.630769s3.938462 11.815385 3.938462 19.692308c3.938462-3.938462 11.815385-7.876923 19.692307-11.815385s7.876923 3.938462 11.815385 0z m169.353846 315.076923c-7.876923-3.938462-7.876923-7.876923-7.876923-7.876923 0-3.938462 3.938462-3.938462 11.815385 0 11.815385 3.938462 27.569231 11.815385 39.384615 19.692308 11.815385 7.876923 27.569231 15.753846 39.384616 27.56923s19.692308 19.692308 31.507692 27.569231c7.876923 7.876923 11.815385 15.753846 15.753846 23.630769 3.938462 11.815385 3.938462 15.753846 0 19.692308-3.938462 0-7.876923 0-15.753846-7.876923-15.753846-19.692308-31.507692-35.446154-51.2-51.2s-43.323077-35.446154-63.015385-51.2z m-90.584615-137.846154c15.753846 0 23.630769 0 23.630769 7.876923s-3.938462 11.815385-19.692308 23.630769c-7.876923 3.938462-15.753846 7.876923-27.56923 11.815385l-35.446154 11.815385c-15.753846 3.938462-27.569231 3.938462-27.569231 3.938461-3.938462 0 0-3.938462 7.876923-7.876923 23.630769-7.876923 43.323077-15.753846 55.138462-19.692308 11.815385-3.938462 15.753846-7.876923 15.753846-7.876923s-3.938462-3.938462-7.876923 0c-15.753846 0-31.507692 0-39.384616-3.938461s-23.630769-7.876923-35.446154-11.815385c-3.938462-3.938462-7.876923-3.938462-7.876923-7.876923s3.938462-3.938462 15.753847 0c11.815385 3.938462 27.569231 3.938462 39.384615 3.938462 15.753846 0 27.569231 0 43.323077-3.938462z m19.692308-86.646154c11.815385 7.876923 15.753846 15.753846 7.876923 27.569231s-27.569231 19.692308-63.015385 27.569231c-15.753846 3.938462-23.630769 3.938462-27.569231 3.938461-3.938462 0 0-3.938462 7.876923-7.876923 15.753846-3.938462 27.569231-7.876923 35.446154-11.815384s15.753846-7.876923 19.692308-11.815385c3.938462-3.938462 3.938462-3.938462 3.938461-7.876923s-3.938462-3.938462-7.876923-7.876923l-35.446154-11.815385h-35.446153c-3.938462 0-7.876923 0-7.876923-3.938461s7.876923-3.938462 15.753846-7.876923c39.384615-3.938462 66.953846 0 86.646154 11.815384z m-47.261539-200.861538c-3.938462-3.938462-7.876923-7.876923-3.938461-7.876923 0-3.938462 3.938462-3.938462 7.876923 0 23.630769 11.815385 43.323077 19.692308 59.076923 31.507692 15.753846 11.815385 27.569231 19.692308 35.446154 31.507692 7.876923 11.815385 11.815385 19.692308 3.938461 27.569231-3.938462 3.938462-3.938462 3.938462-7.876923 0l-15.753846-15.753846c-7.876923-11.815385-19.692308-23.630769-31.507692-31.507692s-27.569231-23.630769-47.261539-35.446154z m437.169231 319.015384c-7.876923-3.938462-11.815385-3.938462-11.815385-7.876923 0 0 3.938462-3.938462 7.876923-3.938461s11.815385 0 19.692308-3.938462c7.876923 0 11.815385-3.938462 19.692308-7.876923 35.446154-23.630769 66.953846-43.323077 94.523077-55.138461l3.938461-3.938462 3.938462-3.938461 7.876923-7.876923 7.876923-7.876924c3.938462-23.630769 3.938462-51.2 7.876923-78.76923s3.938462-55.138462 7.876923-86.646154c0-11.815385 0-23.630769-3.938462-31.507692-3.938462-7.876923-7.876923-15.753846-15.753846-19.692308-7.876923-3.938462-7.876923-7.876923-7.876923-11.815385s11.815385 0 19.692308 3.938462c11.815385 3.938462 19.692308 11.815385 23.630769 19.692307 3.938462 7.876923 7.876923 19.692308 3.938462 31.507693 0 7.876923-3.938462 19.692308-3.938462 31.507692l3.938462-3.938461c23.630769-15.753846 47.261538-11.815385 70.892307 7.876923 7.876923 7.876923 11.815385 15.753846 11.815385 23.630769s-3.938462 15.753846-11.815385 27.569231l-19.692307 19.692307c-7.876923 7.876923-15.753846 19.692308-27.569231 27.569231h7.876923c3.938462 3.938462 11.815385 3.938462 15.753846 7.876923 3.938462 3.938462 11.815385 3.938462 15.753846 3.938462 11.815385 3.938462 15.753846 7.876923 15.753846 11.815384 0 3.938462 0 3.938462-3.938461 7.876923-3.938462 0-7.876923 3.938462-15.753846 3.938462-15.753846 0-27.569231 3.938462-39.384616 7.876923l-35.446153 11.815385v23.630769c7.876923-7.876923 11.815385-7.876923 11.815384-7.876923 3.938462 0 0 3.938462 0 11.815384-3.938462 3.938462-3.938462 7.876923-7.876923 11.815385l-7.876923 11.815385V626.215385c7.876923-3.938462 15.753846-11.815385 23.630769-15.753847 7.876923-3.938462 15.753846-11.815385 19.692308-15.753846 11.815385-7.876923 19.692308-11.815385 19.692308-11.815384s-3.938462 7.876923-15.753847 19.692307l-23.630769 23.63077c-7.876923 7.876923-19.692308 15.753846-27.569231 23.630769v63.015384c0 15.753846 3.938462 27.569231 3.938462 39.384616 3.938462 27.569231 0 31.507692-11.815385 15.753846-3.938462-7.876923-11.815385-15.753846-11.815384-27.569231-3.938462-7.876923-3.938462-23.630769-3.938462-39.384615v-19.692308-19.692308c-11.815385 7.876923-19.692308 15.753846-31.507692 19.692308-11.815385 7.876923-19.692308 11.815385-31.507692 19.692308-7.876923 3.938462-11.815385 3.938462-15.753847 3.938461-3.938462 0-7.876923-7.876923-7.876923-15.753846-3.938462-11.815385-3.938462-19.692308 3.938462-23.630769 3.938462-3.938462 7.876923-3.938462 15.753846-7.876923 11.815385-11.815385 23.630769-27.569231 35.446154-39.384615 11.815385-11.815385 23.630769-27.569231 31.507692-39.384616v-19.692308-19.692307c-23.630769 15.753846-43.323077 27.569231-59.076923 35.446154s-27.569231 19.692308-39.384615 23.630769c-7.876923 7.876923-19.692308 11.815385-27.569231 11.815384 3.938462 7.876923-3.938462 7.876923-15.753846 0z m405.661538-319.015384c-3.938462 3.938462-7.876923 7.876923-11.815384 7.876923 0 0 0-3.938462 3.938461-11.815385 3.938462-3.938462 7.876923-7.876923 11.815385-7.876923h15.753846c7.876923 0 7.876923 7.876923 11.815385 11.815385s3.938462 15.753846 3.938461 23.630769v192.984615c3.938462-3.938462 7.876923-3.938462 11.815385-3.938461s7.876923-3.938462 11.815384-3.938462c31.507692-11.815385 51.2-15.753846 63.015385-11.815384 3.938462 3.938462 7.876923 3.938462 3.938462 7.876923s-7.876923 7.876923-15.753847 7.876923c-11.815385 3.938462-27.569231 3.938462-39.384615 7.876923-15.753846 3.938462-27.569231 7.876923-39.384615 11.815385V787.692308c0 11.815385 0 23.630769-3.938462 39.384615 0 11.815385-3.938462 19.692308-7.876923 19.692308s-3.938462-7.876923-7.876923-23.630769V787.692308v-31.507693-31.507692-35.446154-27.569231-39.384615-43.323077-47.261538c-35.446154 19.692308-66.953846 35.446154-90.584615 51.2-27.569231 15.753846-43.323077 27.569231-51.2 35.446154-7.876923 3.938462-11.815385 7.876923-19.692308 7.876923-3.938462 0-11.815385-3.938462-15.753846-11.815385-3.938462-3.938462-3.938462-11.815385-3.938462-19.692308s3.938462-15.753846 7.876923-23.630769c3.938462-3.938462 7.876923-7.876923 7.876923-3.938461 0 0 0 3.938462-3.938461 11.815384-3.938462 3.938462-3.938462 7.876923-3.938462 11.815385 0 3.938462 0 7.876923 3.938462 7.876923s3.938462 3.938462 7.876923 3.938461 7.876923 0 11.815384-3.938461c19.692308-11.815385 39.384615-23.630769 51.2-31.507692 15.753846-7.876923 27.569231-15.753846 39.384616-23.63077 11.815385-7.876923 23.630769-11.815385 31.507692-15.753846l23.630769-11.815384V433.230769 362.338462 315.076923c0-11.815385 0-19.692308-3.938461-23.630769 0-3.938462-3.938462-7.876923-3.938462-7.876923v7.876923z m-66.953846 94.523077h-35.446154c-3.938462 0-7.876923-3.938462-7.876923-3.938462l-7.876923-7.876923c-3.938462-7.876923-3.938462-7.876923 7.876923-7.876923 7.876923 0 15.753846 3.938462 27.569231 3.938462h39.384615c3.938462 0 7.876923 0 7.876923 3.938461 3.938462 0 3.938462 3.938462 3.938462 7.876923v7.876923c0 3.938462-3.938462 7.876923-3.938462 7.876923l-7.876923 7.876923c-3.938462 3.938462-7.876923 3.938462-11.815384 11.815385l-19.692308 19.692308-31.507692 31.507692c11.815385-3.938462 23.630769-3.938462 35.446154 0s19.692308 3.938462 23.630769 7.876923c3.938462 3.938462 3.938462 3.938462 3.938461 11.815385 0 3.938462-3.938462 11.815385-7.876923 15.753846s-11.815385 15.753846-23.630769 23.630769c-11.815385 7.876923-23.630769 19.692308-43.323077 27.569231-11.815385 7.876923-15.753846 7.876923-19.692308 7.876923 0 0 3.938462-7.876923 15.753847-15.753846 15.753846-11.815385 27.569231-23.630769 35.446153-31.507692 7.876923-7.876923 15.753846-15.753846 15.753847-19.692308s3.938462-7.876923 0-7.876923c0 0-3.938462-3.938462-11.815385-3.938462h-31.507692c-3.938462 0-7.876923 0-11.815385-3.938461-3.938462-3.938462-3.938462-7.876923-3.938461-11.815385 0-7.876923 0-11.815385 7.876923-15.753846 0 0 3.938462 0 3.938461-3.938462l7.876923-7.876923 15.753846-15.753846c3.938462-7.876923 11.815385-15.753846 23.63077-31.507692 7.876923 0 7.876923-3.938462 7.876923-3.938462 0-3.938462 0-3.938462-3.938462-3.938461z m-98.461538 31.507692c3.938462-7.876923 7.876923-15.753846 3.938461-19.692308s-7.876923-11.815385-19.692307-15.753846c-7.876923-3.938462-11.815385-3.938462-19.692308 0-7.876923 0-11.815385 3.938462-19.692308 7.876923-3.938462 0-3.938462 3.938462-3.938461 3.938462 0 7.876923 0 15.753846-3.938462 23.630769s0 15.753846-3.938461 27.569231v47.261538c11.815385-11.815385 23.630769-27.569231 35.446153-39.384615 15.753846-15.753846 23.630769-27.569231 31.507693-35.446154z m-173.292308 11.815385c0-3.938462 0-3.938462 3.938462-3.938462s3.938462 0 7.876923 3.938462c7.876923 11.815385 11.815385 27.569231 11.815384 43.323077v7.876923s3.938462 0 7.876923-3.938462l19.692308-19.692308c7.876923-7.876923 19.692308-23.630769 35.446154-39.384615 3.938462-3.938462 7.876923-3.938462 7.876923-3.938461s0 3.938462-3.938462 7.876923c-7.876923 11.815385-19.692308 23.630769-27.56923 35.446153s-15.753846 27.569231-19.692308 39.384616c-3.938462 7.876923-7.876923 11.815385-11.815385 15.753846-3.938462 0-11.815385-3.938462-19.692307-15.753846-3.938462-7.876923-7.876923-15.753846-3.938462-19.692308v-7.876923-11.815385-11.815384c0-3.938462-7.876923-11.815385-7.876923-15.753846z m78.769231 189.046154c-7.876923 11.815385-15.753846 19.692308-27.569231 31.507692-11.815385 11.815385-19.692308 23.630769-31.507692 35.446154 11.815385-7.876923 23.630769-11.815385 31.507692-19.692308 11.815385-3.938462 19.692308-11.815385 27.569231-15.753846v-15.753846-15.753846z m27.569231-106.338462c3.938462-3.938462 11.815385-3.938462 15.753846-7.876923 3.938462 0 7.876923-3.938462 11.815384-3.938462 11.815385-3.938462 19.692308-7.876923 19.692308-7.876923 0-3.938462-3.938462-7.876923-11.815385-11.815384 0 0-3.938462 0-7.876923 3.938461l-11.815384 11.815385c-3.938462 7.876923-7.876923 11.815385-15.753846 15.753846z m890.092307-74.830769c-7.876923 3.938462-15.753846 3.938462-15.753846 3.938461 0-3.938462 3.938462-7.876923 11.815385-11.815384 15.753846-7.876923 31.507692-19.692308 43.323077-27.569231 15.753846-7.876923 27.569231-11.815385 35.446153-15.753846 3.938462 0 3.938462-3.938462 3.938462-3.938462 0-3.938462-3.938462-3.938462-7.876923-7.876923l-23.630769-11.815384c-7.876923-3.938462-15.753846-7.876923-27.569231-15.753847l-3.938462-3.938461h11.815385c15.753846 3.938462 31.507692 3.938462 43.323077 11.815384 11.815385 3.938462 23.630769 11.815385 35.446154 23.63077 3.938462 3.938462 3.938462 7.876923 3.938461 15.753846s-3.938462 7.876923-7.876923 7.876923c-7.876923 0-23.630769 3.938462-39.384615 7.876923s-39.384615 11.815385-63.015385 27.569231z m421.415385 334.769231c7.876923 3.938462 15.753846 7.876923 15.753846 11.815384s-3.938462 3.938462-15.753846 3.938462c-7.876923 0-15.753846 0-23.630769-3.938462s-19.692308-3.938462-31.507693-3.938461c-7.876923 0-15.753846-3.938462-23.630769-7.876923-7.876923-3.938462-15.753846-11.815385-27.569231-19.692308-7.876923-3.938462-11.815385-11.815385-19.692307-15.753846-7.876923-7.876923-15.753846-11.815385-19.692308-19.692308l-19.692308-19.692308-15.753846-15.753846c-7.876923 11.815385-11.815385 23.630769-19.692308 31.507692-15.753846 15.753846-31.507692 27.569231-55.138461 35.446154-23.630769 3.938462-51.2 3.938462-78.769231-3.938461-7.876923-3.938462-11.815385-3.938462-15.753846-7.876923 0-3.938462 3.938462-3.938462 11.815385-3.938462 19.692308 3.938462 39.384615 3.938462 55.138461 0 15.753846 0 27.569231-3.938462 39.384615-11.815384s19.692308-11.815385 27.569231-23.63077c7.876923-7.876923 15.753846-19.692308 19.692308-35.446154-15.753846-15.753846-31.507692-23.630769-47.261539-31.507692-19.692308-3.938462-35.446154-3.938462-55.138461 0h-3.938462v7.876923c-11.815385 31.507692-27.569231 59.076923-47.261538 86.646154-15.753846 23.630769-39.384615 47.261538-63.015385 63.015385-7.876923 3.938462-15.753846 7.876923-19.692307 3.938461-3.938462-3.938462-7.876923-7.876923-7.876923-19.692307v-35.446154c0-11.815385 0-19.692308-3.938462-27.569231 0-7.876923 0-11.815385 3.938462-11.815385s3.938462 3.938462 7.876923 11.815385c0 3.938462 3.938462 7.876923 3.938461 15.753846s3.938462 15.753846 3.938462 19.692308c0 7.876923 3.938462 7.876923 7.876923 11.815384 3.938462 0 11.815385-3.938462 19.692307-11.815384 15.753846-15.753846 31.507692-35.446154 47.261539-55.138462 11.815385-19.692308 23.630769-43.323077 31.507692-66.953846 3.938462-15.753846 3.938462-27.569231 0-35.446154-3.938462-7.876923-15.753846-11.815385-35.446154-15.753846h-19.692307c-7.876923 19.692308-19.692308 39.384615-27.569231 55.138462-7.876923 15.753846-15.753846 31.507692-27.569231 43.323077-7.876923 11.815385-19.692308 23.630769-27.569231 31.507692-7.876923 7.876923-19.692308 15.753846-31.507692 23.630769-11.815385 7.876923-19.692308 11.815385-23.630769 7.876923-3.938462-3.938462-3.938462-7.876923 0-19.692308 3.938462-15.753846 11.815385-27.569231 15.753846-39.384615 3.938462-11.815385 11.815385-23.630769 15.753846-31.507692 3.938462-7.876923 7.876923-11.815385 11.815385-11.815385 0 0 0 3.938462-3.938462 11.815385-3.938462 7.876923-7.876923 15.753846-7.876923 19.692307-3.938462 3.938462-7.876923 11.815385-11.815384 23.63077v7.876923c0 3.938462 3.938462 0 3.938461-3.938462 11.815385-7.876923 19.692308-19.692308 27.569231-31.507692l23.630769-35.446154c7.876923-11.815385 15.753846-23.630769 19.692308-35.446154 3.938462-11.815385 11.815385-19.692308 15.753846-31.507692 3.938462-15.753846 11.815385-27.569231 15.753846-39.384615 3.938462-11.815385 7.876923-23.630769 11.815385-31.507693-11.815385 3.938462-23.630769 11.815385-31.507693 15.753846s-19.692308 7.876923-27.56923 15.753847-19.692308 7.876923-27.569231 15.753846c-7.876923 3.938462-19.692308 11.815385-31.507692 15.753846-11.815385 3.938462-19.692308 11.815385-27.569231 11.815384-7.876923 3.938462-11.815385 3.938462-19.692308 7.876924s-7.876923 0-11.815385 0c-3.938462 0-3.938462-3.938462-7.876923-3.938462-3.938462-3.938462-7.876923-7.876923-7.876923-15.753846-3.938462-7.876923-3.938462-11.815385-3.938461-15.753846v-7.876923s3.938462 0 7.876923 7.876923c3.938462 11.815385 11.815385 15.753846 19.692308 15.753846s19.692308-3.938462 31.507692-11.815385c15.753846-7.876923 35.446154-19.692308 51.2-27.569231l47.261538-23.630769c15.753846-7.876923 27.569231-11.815385 39.384616-19.692307 11.815385-3.938462 19.692308-7.876923 27.56923-11.815385 15.753846-3.938462 23.630769-7.876923 31.507693-7.876923 7.876923 0 11.815385 3.938462 19.692307 7.876923 3.938462 3.938462 7.876923 7.876923 7.876924 11.815385s-3.938462 3.938462-15.753847 7.876923c-7.876923 0-11.815385 3.938462-19.692307 3.938461-3.938462 3.938462-15.753846 7.876923-27.569231 15.753846l-7.876923 3.938462c-3.938462 11.815385-7.876923 27.569231-15.753846 43.323077v7.876923c19.692308-3.938462 39.384615 0 51.2 7.876923 7.876923 7.876923 15.753846 15.753846 15.753846 23.630769 3.938462 7.876923 3.938462 19.692308 0 31.507692 19.692308-7.876923 39.384615-7.876923 59.076923-3.938461s35.446154 15.753846 51.2 31.507692c7.876923-23.630769 11.815385-43.323077 15.753846-59.076923 3.938462-15.753846 0-27.569231-3.938461-35.446154-7.876923-7.876923-7.876923-11.815385-7.876924-15.753846 3.938462-3.938462 7.876923 0 15.753847 0 3.938462 3.938462 11.815385 3.938462 11.815384 11.815385 3.938462 3.938462 3.938462 11.815385 3.938462 23.630769 0 15.753846-3.938462 27.569231-7.876923 43.323077-3.938462 15.753846-7.876923 31.507692-15.753846 43.323077 7.876923 11.815385 19.692308 19.692308 31.507692 31.507692 11.815385 11.815385 19.692308 19.692308 31.507692 27.569231 11.815385 7.876923 19.692308 15.753846 27.569231 19.692308l23.630769 11.815384c7.876923 3.938462 11.815385 3.938462 15.753846 3.938462 3.938462 0 7.876923 3.938462 11.815385 3.938461 3.938462 0 7.876923 3.938462 11.815385 3.938462s27.569231 19.692308 31.507692 19.692308z m-315.076923-299.323077c-7.876923 3.938462-11.815385 3.938462-19.692308 7.876923-3.938462 3.938462-11.815385 3.938462-15.753846 7.876923v15.753846c3.938462-3.938462 11.815385-7.876923 15.753846-11.815385s11.815385-15.753846 19.692308-19.692307z m66.953846 94.523077c-3.938462 3.938462-7.876923 3.938462-11.815385 3.938461-3.938462 0-3.938462-3.938462-3.938461-11.815385v-11.815384c0-3.938462 3.938462-3.938462 11.815384-7.876923 3.938462 0 3.938462-3.938462 7.876923-7.876923 3.938462-11.815385 11.815385-23.630769 15.753847-35.446154 3.938462-11.815385 11.815385-27.569231 19.692307-39.384616 7.876923-11.815385 11.815385-27.569231 19.692308-39.384615 3.938462-11.815385 11.815385-23.630769 15.753846-31.507692 3.938462-7.876923 3.938462-11.815385 3.938462-15.753846 0-3.938462-3.938462-7.876923-7.876923-11.815385l-15.753847-15.753846c-3.938462-3.938462-11.815385-11.815385-19.692307-15.753846-7.876923-3.938462-7.876923-7.876923-7.876923-11.815385s3.938462-3.938462 11.815384 0c11.815385 3.938462 19.692308 11.815385 31.507693 15.753846 11.815385 7.876923 19.692308 15.753846 27.56923 23.630769 3.938462 3.938462 3.938462 7.876923 3.938462 15.753847 0 3.938462-3.938462 11.815385-7.876923 19.692307-7.876923 11.815385-15.753846 27.569231-27.569231 47.261539-11.815385 19.692308-23.630769 51.2-39.384615 86.646154 11.815385-3.938462 23.630769-7.876923 31.507692-11.815385s19.692308-7.876923 31.507692-15.753846l23.63077-11.815385c7.876923-3.938462 11.815385-7.876923 15.753846-11.815384 15.753846-11.815385 27.569231-11.815385 39.384615-7.876923 7.876923 3.938462 11.815385 7.876923 11.815385 11.815384s-3.938462 7.876923-11.815385 7.876923c-15.753846 3.938462-31.507692 11.815385-47.261538 15.753846-15.753846 3.938462-27.569231 11.815385-39.384616 15.753847-11.815385 3.938462-23.630769 11.815385-39.384615 19.692307-15.753846 15.753846-31.507692 23.630769-43.323077 31.507693z m795.569231 82.707692c11.815385 7.876923 15.753846 15.753846 11.815384 23.630769-3.938462 7.876923-15.753846 11.815385-31.507692 15.753846-59.076923 11.815385-114.215385 15.753846-157.538462 7.876923s-74.830769-19.692308-98.461538-39.384615c-11.815385-11.815385-19.692308-23.630769-27.569231-39.384615-7.876923-15.753846-11.815385-39.384615-15.753846-66.953847-3.938462-11.815385-3.938462-19.692308-7.876923-27.56923s-7.876923-11.815385-11.815385-15.753847c-3.938462-3.938462-7.876923-7.876923-7.876923-11.815384s3.938462-3.938462 11.815385 0c11.815385 7.876923 23.630769 15.753846 27.569231 27.569231 3.938462 11.815385 7.876923 27.569231 11.815384 47.261538 3.938462 19.692308 7.876923 35.446154 15.753846 47.261539 7.876923 11.815385 19.692308 23.630769 31.507693 31.507692 15.753846 7.876923 35.446154 15.753846 59.076923 23.630769s51.2 7.876923 86.646154 3.938462c19.692308 0 35.446154-3.938462 47.261538-3.938462 11.815385-3.938462 19.692308-3.938462 23.630769-7.876923 3.938462-3.938462 7.876923-3.938462 7.876923-7.876923s0-3.938462-3.938461-7.876923c-23.630769-19.692308-39.384615-35.446154-55.138462-55.138462s-31.507692-31.507692-43.323077-51.2c-3.938462-3.938462-7.876923-11.815385-7.876923-15.753846v-7.876923s3.938462 0 7.876923 3.938462l11.815385 11.815384c7.876923 11.815385 19.692308 19.692308 27.569231 31.507693l31.507692 31.507692c11.815385 7.876923 19.692308 19.692308 31.507692 23.630769 7.876923 15.753846 19.692308 23.630769 23.63077 27.569231z m47.261538-220.553846c3.938462 3.938462 3.938462 11.815385 7.876923 15.753846s0 11.815385 0 15.753846c0 3.938462-3.938462 7.876923-7.876923 7.876923s-7.876923 3.938462-15.753846 0-19.692308-3.938462-27.569231-3.938461h-47.261538c-3.938462 0-7.876923 0-7.876923-3.938462 0 0 0-3.938462 3.938461-3.938462s7.876923-3.938462 11.815385-3.938461c15.753846-3.938462 27.569231-3.938462 35.446154-7.876923 7.876923-3.938462 15.753846-3.938462 15.753846-7.876923 3.938462-3.938462 3.938462-3.938462 3.938461-7.876923s0-7.876923-3.938461-11.815385c-3.938462-7.876923-7.876923-11.815385-15.753846-19.692308s-15.753846-11.815385-23.63077-15.753846c-3.938462 0-7.876923-3.938462-7.876923-3.938461h-11.815384c-3.938462 0-7.876923 3.938462-11.815385 7.876923-3.938462 3.938462-11.815385 7.876923-15.753846 15.753846-23.630769 23.630769-39.384615 43.323077-55.138462 59.076923-11.815385 15.753846-23.630769 27.569231-31.507692 39.384615-7.876923 11.815385-11.815385 19.692308-11.815384 23.63077-3.938462 7.876923-3.938462 11.815385-3.938462 15.753846 0 11.815385 0 19.692308-3.938462 19.692307-3.938462 3.938462-11.815385 0-23.630769-11.815384-7.876923-7.876923-15.753846-15.753846-19.692307-27.569231l-11.815385-35.446154c-3.938462-7.876923-3.938462-15.753846-11.815385-23.630769-3.938462-7.876923-11.815385-11.815385-15.753846-15.753846-7.876923-3.938462-11.815385-7.876923-11.815384-11.815385 0-3.938462 7.876923-3.938462 15.753846 0 11.815385 3.938462 19.692308 11.815385 23.630769 19.692308 7.876923 7.876923 11.815385 23.630769 19.692308 39.384615 3.938462 11.815385 7.876923 19.692308 11.815384 19.692308s7.876923-3.938462 15.753846-15.753846 15.753846-19.692308 19.692308-27.569231l23.630769-23.630769c7.876923-7.876923 15.753846-15.753846 23.63077-27.569231 7.876923-7.876923 19.692308-19.692308 31.507692-35.446154 7.876923-11.815385 19.692308-15.753846 27.569231-19.692307s15.753846-3.938462 23.630769 0c15.753846 3.938462 27.569231 11.815385 39.384615 19.692307 27.569231 23.630769 35.446154 35.446154 43.323077 47.261539z m-460.8 102.4v-11.815385c3.938462 0 3.938462 0 7.876923 7.876923 3.938462 3.938462 3.938462 11.815385 7.876923 19.692308s3.938462 15.753846 3.938462 23.630769v27.569231c0 7.876923 0 15.753846-3.938462 23.630769-3.938462 19.692308-7.876923 39.384615-7.876923 47.261539v39.384615c0 3.938462 0 3.938462-3.938461 7.876923h-3.938462s-3.938462-3.938462-7.876923-11.815385c-3.938462-7.876923-7.876923-19.692308-7.876923-31.507692s0-23.630769 3.938462-35.446154c3.938462-15.753846 7.876923-31.507692 7.876923-47.261538 7.876923-19.692308 7.876923-39.384615 3.938461-59.076923z m764.061539-141.784616h-23.63077c-3.938462 0 0-3.938462 3.938462-3.938461 11.815385-3.938462 19.692308-7.876923 35.446154-11.815385s23.630769-11.815385 39.384615-15.753846 23.630769-11.815385 35.446154-19.692308c11.815385-7.876923 19.692308-11.815385 27.569231-19.692307 7.876923-7.876923 11.815385-11.815385 11.815384-15.753847 0-3.938462-3.938462-7.876923-3.938461-7.876923-15.753846-11.815385-19.692308-19.692308-15.753846-23.630769s15.753846 3.938462 39.384615 15.753846c15.753846 7.876923 19.692308 15.753846 23.630769 23.63077 0 3.938462-3.938462 11.815385-7.876923 11.815384-11.815385 3.938462-19.692308 11.815385-27.569231 15.753846s-19.692308 11.815385-31.507692 15.753846c-11.815385 3.938462-23.630769 11.815385-35.446154 15.753847l-35.446154 11.815384c-15.753846 3.938462-27.569231 3.938462-35.446153 7.876923z m-43.323077 153.6c-7.876923-7.876923-11.815385-19.692308-19.692308-31.507692-3.938462-11.815385-7.876923-23.630769-11.815385-31.507692-3.938462-11.815385-3.938462-15.753846-3.938461-15.753846s3.938462 3.938462 7.876923 15.753846c7.876923 15.753846 11.815385 23.630769 19.692308 31.507692 3.938462 7.876923 7.876923 11.815385 11.815384 11.815385 3.938462 0 3.938462 0 3.938462-3.938462s3.938462-7.876923 3.938461-15.753846c3.938462-27.569231 7.876923-43.323077 11.815385-43.323077 3.938462-3.938462 3.938462 7.876923 3.938461 31.507692v35.446154c0 15.753846-3.938462 23.630769-7.876923 27.569231-3.938462 3.938462-11.815385 0-19.692307-11.815385z m106.338461-47.261538c3.938462 3.938462 11.815385 3.938462 15.753846 7.876923 3.938462 0 3.938462 0 3.938462 3.938461l3.938461 3.938462c15.753846-11.815385 31.507692-23.630769 43.323077-39.384615s23.630769-23.630769 31.507693-35.446154c3.938462-7.876923 7.876923-15.753846 7.876923-19.692308 0-3.938462-7.876923-7.876923-15.753846-11.815385-3.938462 0-7.876923-3.938462-7.876923-3.938461s0-3.938462 3.938461-3.938462h11.815385c3.938462 0 15.753846 3.938462 23.630769 7.876923l11.815385 11.815385c3.938462 3.938462-3.938462 15.753846-11.815385 23.630769l-15.753846 15.753846c-7.876923 3.938462-11.815385 11.815385-19.692308 19.692308s-15.753846 11.815385-23.630769 19.692308c-7.876923 7.876923-19.692308 11.815385-27.569231 19.692308 3.938462 3.938462 3.938462 11.815385 0 19.692307v3.938462c11.815385-3.938462 23.630769-7.876923 31.507692-7.876923 11.815385-3.938462 19.692308-3.938462 27.569231-3.938462 15.753846-3.938462 27.569231-3.938462 35.446154 0s11.815385 3.938462 15.753846 7.876923c3.938462 3.938462 3.938462 7.876923 3.938462 7.876923v3.938462c-3.938462 0-7.876923 3.938462-11.815385 3.938461h-27.569231c-11.815385 0-23.630769 0-35.446154 3.938462-11.815385 0-27.569231 3.938462-39.384615 7.876923v55.138462c11.815385 3.938462 19.692308 3.938462 31.507692 7.876923 7.876923 3.938462 15.753846 7.876923 19.692308 11.815384 7.876923 3.938462 15.753846 11.815385 23.630769 19.692308 7.876923 7.876923 19.692308 15.753846 31.507693 23.630769 3.938462 3.938462 11.815385 7.876923 23.630769 11.815385s19.692308 7.876923 27.569231 11.815384c7.876923 3.938462 19.692308 7.876923 27.56923 7.876923 7.876923 3.938462 15.753846 3.938462 15.753847 3.938462 7.876923 0 15.753846 0 23.630769 3.938462 7.876923 0 11.815385 3.938462 19.692307 3.938461s11.815385 3.938462 19.692308 3.938462 11.815385 3.938462 19.692308 3.938461 11.815385 3.938462 11.815384 3.938462l3.938462 3.938461-3.938462 3.938462h-11.815384c-31.507692-3.938462-55.138462-3.938462-74.830769-7.876923s-35.446154-7.876923-47.261539-15.753846c-23.630769-11.815385-43.323077-23.630769-63.015384-31.507693-19.692308-11.815385-35.446154-23.630769-55.138462-39.384615-7.876923-3.938462-11.815385-11.815385-19.692308-11.815385-7.876923-3.938462-11.815385-7.876923-19.692307-7.876923V779.815385c0 11.815385 0 19.692308-3.938462 23.630769 0 3.938462-3.938462 11.815385-7.876923 19.692308s-7.876923 11.815385-7.876923 11.815384c-3.938462 0-7.876923 0-11.815385-7.876923-3.938462-3.938462-7.876923-7.876923-11.815384-15.753846s-7.876923-11.815385-15.753846-19.692308c-3.938462-7.876923-7.876923-11.815385-15.753847-19.692307-3.938462-7.876923-7.876923-11.815385-7.876923-15.753847-3.938462-7.876923-7.876923-11.815385-3.938461-15.753846s3.938462 0 11.815384 7.876923l11.815385 11.815385 7.876923 7.876923c3.938462 3.938462 7.876923 3.938462 7.876923 7.876923 3.938462 3.938462 7.876923 3.938462 11.815385 7.876923 3.938462 0 3.938462 3.938462 7.876923 3.938462 0 0 3.938462 0 3.938461-3.938462s3.938462-7.876923 3.938462-11.815384v-39.384616-31.507692-82.707692c-11.815385 0-23.630769-3.938462-31.507692 0-11.815385 0-19.692308 3.938462-31.507693 3.938461h-3.938461-3.938462c-7.876923 15.753846-15.753846 31.507692-19.692307 47.261539-7.876923 15.753846-15.753846 23.630769-23.63077 35.446153-11.815385 11.815385-23.630769 23.630769-31.507692 27.569231-7.876923 3.938462-19.692308 7.876923-27.569231 7.876923h-19.692307s7.876923-7.876923 19.692307-11.815384c7.876923-3.938462 15.753846-7.876923 23.630769-15.753847 7.876923-3.938462 11.815385-11.815385 19.692308-19.692307 11.815385-15.753846 23.630769-31.507692 31.507692-51.2 7.876923-19.692308 15.753846-39.384615 19.692308-59.076923-7.876923 3.938462-11.815385 7.876923-19.692308 7.876923s-11.815385 3.938462-15.753846 7.876923l-23.630769 11.815384c-7.876923 3.938462-11.815385 3.938462-19.692308 7.876924h-15.753846c-3.938462 0-7.876923 0-11.815384-3.938462-7.876923 0-11.815385-3.938462-15.753847-7.876923s-3.938462-3.938462-3.938461-7.876923 0-3.938462 3.938461-3.938462 7.876923-3.938462 11.815385 0h23.630769c7.876923 0 19.692308-3.938462 31.507693-11.815384 23.630769-7.876923 47.261538-19.692308 70.892307-27.569231 23.630769-7.876923 43.323077-15.753846 63.015385-23.630769v-7.876923-7.876923c-11.815385 7.876923-19.692308 15.753846-31.507692 19.692307-7.876923 3.938462-15.753846 11.815385-23.63077 15.753846-19.692308 7.876923-31.507692 11.815385-31.507692 11.815385-3.938462-3.938462 3.938462-7.876923 15.753846-11.815385 7.876923-3.938462 19.692308-11.815385 31.507693-19.692307l35.446153-23.63077c0-3.938462-3.938462-3.938462-3.938461-3.938461s-3.938462-3.938462-7.876923-3.938462c-7.876923-3.938462-7.876923-7.876923-7.876923-11.815384 0-3.938462 3.938462-3.938462 7.876923-3.938462-3.938462-3.938462-11.815385-7.876923-15.753846-19.692307l-7.876923-7.876924c-3.938462-3.938462-3.938462-7.876923-7.876924-11.815384s-3.938462-7.876923-7.876923-11.815385c0-3.938462-3.938462-7.876923-3.938461-7.876923v-7.876923c3.938462 0 7.876923 3.938462 15.753846 15.753846 11.815385 11.815385 15.753846 15.753846 19.692308 15.753846 3.938462 0 7.876923 0 11.815384-3.938461 3.938462-3.938462 7.876923-7.876923 11.815385-15.753846s11.815385-15.753846 15.753846-23.63077c3.938462-7.876923 7.876923-11.815385 7.876923-11.815384v7.876923c-3.938462 3.938462-3.938462 7.876923-7.876923 15.753846-3.938462 3.938462-3.938462 11.815385-7.876923 15.753846-3.938462 3.938462-3.938462 7.876923-7.876923 11.815385-3.938462 3.938462-3.938462 11.815385-7.876923 19.692308-3.938462 23.630769-7.876923 31.507692-11.815385 31.507692z m-35.446154 118.153846c15.753846-3.938462 31.507692-3.938462 47.261539 0v-47.261538c-7.876923 3.938462-19.692308 3.938462-27.569231 7.876923s-19.692308 7.876923-27.569231 7.876923c0 3.938462-3.938462 11.815385-3.938461 15.753846s-3.938462 11.815385-3.938462 15.753846h15.753846zM9724.061538 354.461538c11.815385 0 19.692308 3.938462 27.569231 11.815385-3.938462 7.876923-7.876923 15.753846-11.815384 31.507692-3.938462 11.815385-11.815385 27.569231-19.692308 43.323077-15.753846 39.384615-27.569231 70.892308-39.384615 98.461539-11.815385 27.569231-19.692308 51.2-31.507693 74.830769h7.876923c3.938462 0 7.876923 0 7.876923 3.938462v7.876923s0 3.938462-3.938461 3.938461 0 3.938462-3.938462 3.938462c-15.753846 0-23.630769-7.876923-27.56923-23.63077 0 0 0-7.876923 3.938461-15.753846s7.876923-23.630769 15.753846-43.323077c7.876923-19.692308 15.753846-43.323077 27.569231-74.830769 11.815385-31.507692 27.569231-66.953846 43.323077-114.215384l3.938461-7.876924z m-86.646153 389.907693c-3.938462 0-11.815385-3.938462-11.815385-15.753846V708.923077v-23.630769c0-7.876923 3.938462-15.753846 3.938462-19.692308 0-3.938462 3.938462-7.876923 7.876923-7.876923s7.876923 3.938462 7.876923 7.876923 3.938462 11.815385 7.876923 15.753846v15.753846c0 7.876923 0 15.753846-3.938462 19.692308 0 7.876923-3.938462 11.815385-3.938461 19.692308s-3.938462 7.876923-7.876923 7.876923z" fill="#333333" p-id="2912"></path></svg>