<?xml version="1.0" standalone="no"?><!DOCTYPE svg PUBLIC "-//W3C//DTD SVG 1.1//EN" "http://www.w3.org/Graphics/SVG/1.1/DTD/svg11.dtd"><svg t="1537257728388" class="icon" style="" viewBox="0 0 1024 1024" version="1.1" xmlns="http://www.w3.org/2000/svg" p-id="2927" xmlns:xlink="http://www.w3.org/1999/xlink" width="230" height="230"><defs><style type="text/css"></style></defs><path d="M1024 512C1024 229.888 794.112 0 512 0S0 229.888 0 512c0 153.088 67.584 290.304 174.08 384l-27.648 128 156.16-45.056c64 28.672 135.168 45.056 209.408 45.056 100.864 0 195.072-29.184 274.432-79.872l-27.136-143.36a392.4992 392.4992 0 0 1-232.448 76.288c-216.576 0-390.656-174.08-380.416-384.512 10.24-179.712 160.768-330.752 348.16-346.624 122.88-10.24 235.52 36.864 311.808 115.712 20.48 20.48 14.848 53.76-10.24 67.072l-62.976 35.328c-22.016 11.776-48.64 9.216-66.048-5.632-37.888-32.256-86.016-51.2-140.288-51.2-124.416 0-225.28 103.936-210.944 226.304 11.776 94.72 92.16 171.008 191.488 179.712 109.568 10.24 204.8-61.44 226.816-159.232l-81.92 20.48c-8.704 3.072-17.92 0-23.552-7.168l-15.872-18.944c-14.336-18.944-8.704-45.056 13.312-56.32l230.912-112.64c17.92-8.704 38.4 4.608 35.328 23.552l-70.144 515.584c122.368-93.696 201.728-241.152 201.728-406.528z" fill="#C30D23" p-id="2928"></path><path d="M788.48 954.368c3.072 15.872 26.112 14.848 29.184 0l4.608-35.84c-11.776 8.704-23.552 17.408-35.84 25.088l2.048 10.752z" fill="#FFFFFF" p-id="2929"></path><path d="M857.088 379.392l-230.912 112.64c-22.016 11.264-27.648 37.376-13.312 56.32l15.872 18.944c5.632 7.168 14.848 10.24 23.552 7.168l81.92-20.48c-22.016 97.792-117.248 169.472-226.816 159.232-99.328-8.704-179.712-84.992-191.488-179.712C301.568 411.136 402.432 307.2 526.848 307.2c54.272 0 102.4 18.944 140.288 51.2 17.408 14.848 44.032 17.408 66.048 5.632l62.976-35.328c25.088-13.312 30.72-46.592 10.24-67.072-76.288-78.848-188.928-125.952-311.808-115.712-187.392 15.872-337.92 166.912-348.16 346.624-10.24 210.432 163.84 384.512 380.416 384.512 87.552 0 168.448-29.184 232.448-76.288l27.136 143.36c12.288-7.68 24.576-16.384 35.84-25.088l70.144-515.584c3.072-19.456-17.408-32.768-35.328-24.064z" fill="#FFFFFF" p-id="2930"></path></svg>