<?xml version="1.0" standalone="no"?><!DOCTYPE svg PUBLIC "-//W3C//DTD SVG 1.1//EN" "http://www.w3.org/Graphics/SVG/1.1/DTD/svg11.dtd"><svg t="1537257473413" class="icon" style="" viewBox="0 0 1024 1024" version="1.1" xmlns="http://www.w3.org/2000/svg" p-id="2897" xmlns:xlink="http://www.w3.org/1999/xlink" width="230" height="230"><defs><style type="text/css"></style></defs><path d="M137.846154 157.538462h748.307692v866.461538l-370.215384-259.938462L137.846154 1024zM137.846154 0h748.307692v78.769231H137.846154z" fill="#EF4040" p-id="2898"></path><path d="M287.507692 283.569231h114.215385v-31.507693h47.261538v31.507693H571.076923v-31.507693h47.261539v31.507693h114.215384v43.323077h-114.215384v31.507692H571.076923v-31.507692H448.984615v31.507692H401.723077v-31.507692H287.507692V283.569231zM295.384615 389.907692h141.784616c7.876923-11.815385 11.815385-23.630769 15.753846-35.446154l47.261538 7.876924c-3.938462 7.876923-3.938462 19.692308-7.876923 27.56923h240.246154V433.230769H468.676923c-15.753846 27.569231-31.507692 51.2-55.138461 74.830769v216.615385H370.215385v-169.353846l-59.076923 47.261538-31.507693-39.384615C334.769231 523.815385 378.092308 480.492308 413.538462 433.230769H295.384615V389.907692z m283.569231 153.6c11.815385-7.876923 31.507692-19.692308 55.138462-35.446154H480.492308v-43.323076h224.492307v35.446153c-19.692308 15.753846-47.261538 35.446154-74.830769 55.138462v11.815385h106.338462v47.261538h-106.338462v63.015385c0 31.507692-15.753846 47.261538-47.261538 47.261538H519.876923l-15.753846-47.261538c23.630769 3.938462 43.323077 3.938462 55.138461 3.938461 11.815385 0 15.753846-3.938462 15.753847-15.753846v-51.2H445.046154v-47.261538h133.907692v-23.63077z" fill="#FFFFFF" p-id="2899"></path></svg>